<svg width="340" height="228" viewBox="0 0 340 228" fill="none" xmlns="http://www.w3.org/2000/svg">
<rect x="46" y="40" width="243" height="157" fill="black"/>
<path d="M22.417 40H12V49.3333M22.417 58.6667H12V49.3333M12 49.3333H22.417M26.0936 60V50M26.0936 50V40H36.5V50H26.0936ZM26.0936 50L35.9663 59.2M41.4687 50V40H52.5V50H41.4687ZM41.4687 50V60M41.4687 50L52.5 59.2M74 50V40H85V50H74ZM74 50V60M74 50L85 59.2M57.6511 58.6667V40H68.6809V58.6667H57.6511Z" stroke="black" stroke-width="3"/>
<path d="M59.417 25H49V34.3333M59.417 43.6667H49V34.3333M49 34.3333H59.417M63.0936 45V35M63.0936 35V25H73.5V35H63.0936ZM63.0936 35L72.9663 44.2M78.4687 35V25H89.5V35H78.4687ZM78.4687 35V45M78.4687 35L89.5 44.2M111 35V25H122V35H111ZM111 35V45M111 35L122 44.2M94.6511 43.6667V25H105.681V43.6667H94.6511Z" stroke="black" stroke-width="3"/>
<path d="M28.417 60H18V69.3333M28.417 78.6667H18V69.3333M18 69.3333H28.417M32.0936 80V70M32.0936 70V60H42.5V70H32.0936ZM32.0936 70L41.9663 79.2M47.4687 70V60H58.5V70H47.4687ZM47.4687 70V80M47.4687 70L58.5 79.2M80 70V60H91V70H80ZM80 70V80M80 70L91 79.2M63.6511 78.6667V60H74.6809V78.6667H63.6511Z" stroke="black" stroke-width="3"/>
<path d="M14.417 80H4V89.3333M14.417 98.6667H4V89.3333M4 89.3333H14.417M18.0936 100V90M18.0936 90V80H28.5V90H18.0936ZM18.0936 90L27.9663 99.2M33.4687 90V80H44.5V90H33.4687ZM33.4687 90V100M33.4687 90L44.5 99.2M66 90V80H77V90H66ZM66 90V100M66 90L77 99.2M49.6511 98.6667V80H60.6809V98.6667H49.6511Z" stroke="black" stroke-width="3"/>
<path d="M185.417 25H175V34.3333M185.417 43.6667H175V34.3333M175 34.3333H185.417M189.094 45V35M189.094 35V25H199.5V35H189.094ZM189.094 35L198.966 44.2M204.469 35V25H215.5V35H204.469ZM204.469 35V45M204.469 35L215.5 44.2M237 35V25H248V35H237ZM237 35V45M237 35L248 44.2M220.651 43.6667V25H231.681V43.6667H220.651Z" stroke="black" stroke-width="3"/>
<path d="M185.417 25H175V34.3333M185.417 43.6667H175V34.3333M175 34.3333H185.417M189.094 45V35M189.094 35V25H199.5V35H189.094ZM189.094 35L198.966 44.2M204.469 35V25H215.5V35H204.469ZM204.469 35V45M204.469 35L215.5 44.2M237 35V25H248V35H237ZM237 35V45M237 35L248 44.2M220.651 43.6667V25H231.681V43.6667H220.651Z" stroke="black" stroke-width="3"/>
<path d="M185.417 25H175V34.3333M185.417 43.6667H175V34.3333M175 34.3333H185.417M189.094 45V35M189.094 35V25H199.5V35H189.094ZM189.094 35L198.966 44.2M204.469 35V25H215.5V35H204.469ZM204.469 35V45M204.469 35L215.5 44.2M237 35V25H248V35H237ZM237 35V45M237 35L248 44.2M220.651 43.6667V25H231.681V43.6667H220.651Z" stroke="black" stroke-width="3"/>
<path d="M249.417 30H239V39.3333M249.417 48.6667H239V39.3333M239 39.3333H249.417M253.094 50V40M253.094 40V30H263.5V40H253.094ZM253.094 40L262.966 49.2M268.469 40V30H279.5V40H268.469ZM268.469 40V50M268.469 40L279.5 49.2M301 40V30H312V40H301ZM301 40V50M301 40L312 49.2M284.651 48.6667V30H295.681V48.6667H284.651Z" stroke="black" stroke-width="3"/>
<path d="M128.417 30H118V39.3333M128.417 48.6667H118V39.3333M118 39.3333H128.417M132.094 50V40M132.094 40V30H142.5V40H132.094ZM132.094 40L141.966 49.2M147.469 40V30H158.5V40H147.469ZM147.469 40V50M147.469 40L158.5 49.2M180 40V30H191V40H180ZM180 40V50M180 40L191 49.2M163.651 48.6667V30H174.681V48.6667H163.651Z" stroke="black" stroke-width="3"/>
<path d="M268.417 45H258V54.3333M268.417 63.6667H258V54.3333M258 54.3333H268.417M272.094 65V55M272.094 55V45H282.5V55H272.094ZM272.094 55L281.966 64.2M287.469 55V45H298.5V55H287.469ZM287.469 55V65M287.469 55L298.5 64.2M320 55V45H331V55H320ZM320 55V65M320 55L331 64.2M303.651 63.6667V45H314.681V63.6667H303.651Z" stroke="black" stroke-width="3"/>
<path d="M35.417 175H25V184.333M35.417 193.667H25V184.333M25 184.333H35.417M39.0936 195V185M39.0936 185V175H49.5V185H39.0936ZM39.0936 185L48.9663 194.2M54.4687 185V175H65.5V185H54.4687ZM54.4687 185V195M54.4687 185L65.5 194.2M87 185V175H98V185H87ZM87 185V195M87 185L98 194.2M70.6511 193.667V175H81.6809V193.667H70.6511Z" stroke="black" stroke-width="3"/>
<path d="M67.417 187H57V196.333M67.417 205.667H57V196.333M57 196.333H67.417M71.0936 207V197M71.0936 197V187H81.5V197H71.0936ZM71.0936 197L80.9663 206.2M86.4687 197V187H97.5V197H86.4687ZM86.4687 197V207M86.4687 197L97.5 206.2M119 197V187H130V197H119ZM119 197V207M119 197L130 206.2M102.651 205.667V187H113.681V205.667H102.651Z" stroke="black" stroke-width="3"/>
<path d="M30.417 195H20V204.333M30.417 213.667H20V204.333M20 204.333H30.417M34.0936 215V205M34.0936 205V195H44.5V205H34.0936ZM34.0936 205L43.9663 214.2M49.4687 205V195H60.5V205H49.4687ZM49.4687 205V215M49.4687 205L60.5 214.2M82 205V195H93V205H82ZM82 205V215M82 205L93 214.2M65.6511 213.667V195H76.6809V213.667H65.6511Z" stroke="black" stroke-width="3"/>
<path d="M180.417 185H170V194.333M180.417 203.667H170V194.333M170 194.333H180.417M184.094 205V195M184.094 195V185H194.5V195H184.094ZM184.094 195L193.966 204.2M199.469 195V185H210.5V195H199.469ZM199.469 195V205M199.469 195L210.5 204.2M232 195V185H243V195H232ZM232 195V205M232 195L243 204.2M215.651 203.667V185H226.681V203.667H215.651Z" stroke="black" stroke-width="3"/>
<path d="M268.417 169H258V178.333M268.417 187.667H258V178.333M258 178.333H268.417M272.094 189V179M272.094 179V169H282.5V179H272.094ZM272.094 179L281.966 188.2M287.469 179V169H298.5V179H287.469ZM287.469 179V189M287.469 179L298.5 188.2M320 179V169H331V179H320ZM320 179V189M320 179L331 188.2M303.651 187.667V169H314.681V187.667H303.651Z" stroke="black" stroke-width="3"/>
<path d="M246.417 182H236V191.333M246.417 200.667H236V191.333M236 191.333H246.417M250.094 202V192M250.094 192V182H260.5V192H250.094ZM250.094 192L259.966 201.2M265.469 192V182H276.5V192H265.469ZM265.469 192V202M265.469 192L276.5 201.2M298 192V182H309V192H298ZM298 192V202M298 192L309 201.2M281.651 200.667V182H292.681V200.667H281.651Z" stroke="black" stroke-width="3"/>
<path d="M262.417 134H252V143.333M262.417 152.667H252V143.333M252 143.333H262.417M266.094 154V144M266.094 144V134H276.5V144H266.094ZM266.094 144L275.966 153.2M281.469 144V134H292.5V144H281.469ZM281.469 144V154M281.469 144L292.5 153.2M314 144V134H325V144H314ZM314 144V154M314 144L325 153.2M297.651 152.667V134H308.681V152.667H297.651Z" stroke="black" stroke-width="3"/>
<path d="M238.417 192H228V201.333M238.417 210.667H228V201.333M228 201.333H238.417M242.094 212V202M242.094 202V192H252.5V202H242.094ZM242.094 202L251.966 211.2M257.469 202V192H268.5V202H257.469ZM257.469 202V212M257.469 202L268.5 211.2M290 202V192H301V202H290ZM290 202V212M290 202L301 211.2M273.651 210.667V192H284.681V210.667H273.651Z" stroke="black" stroke-width="3"/>
<path d="M138.417 189H128V198.333M138.417 207.667H128V198.333M128 198.333H138.417M142.094 209V199M142.094 199V189H152.5V199H142.094ZM142.094 199L151.966 208.2M157.469 199V189H168.5V199H157.469ZM157.469 199V209M157.469 199L168.5 208.2M190 199V189H201V199H190ZM190 199V209M190 199L201 208.2M173.651 207.667V189H184.681V207.667H173.651Z" stroke="black" stroke-width="3"/>
<path d="M275.417 154H265V163.333M275.417 172.667H265V163.333M265 163.333H275.417M279.094 174V164M279.094 164V154H289.5V164H279.094ZM279.094 164L288.966 173.2M294.469 164V154H305.5V164H294.469ZM294.469 164V174M294.469 164L305.5 173.2M327 164V154H338V164H327ZM327 164V174M327 164L338 173.2M310.651 172.667V154H321.681V172.667H310.651Z" stroke="black" stroke-width="3"/>
<path d="M249.417 75H239V84.3333M249.417 93.6667H239V84.3333M239 84.3333H249.417M253.094 95V85M253.094 85V75H263.5V85H253.094ZM253.094 85L262.966 94.2M268.469 85V75H279.5V85H268.469ZM268.469 85V95M268.469 85L279.5 94.2M301 85V75H312V85H301ZM301 85V95M301 85L312 94.2M284.651 93.6667V75H295.681V93.6667H284.651Z" stroke="black" stroke-width="3"/>
<path d="M258.417 60H248V69.3333M258.417 78.6667H248V69.3333M248 69.3333H258.417M262.094 80V70M262.094 70V60H272.5V70H262.094ZM262.094 70L271.966 79.2M277.469 70V60H288.5V70H277.469ZM277.469 70V80M277.469 70L288.5 79.2M310 70V60H321V70H310ZM310 70V80M310 70L321 79.2M293.651 78.6667V60H304.681V78.6667H293.651Z" stroke="black" stroke-width="3"/>
<path d="M268.417 85H258V94.3333M268.417 103.667H258V94.3333M258 94.3333H268.417M272.094 105V95M272.094 95V85H282.5V95H272.094ZM272.094 95L281.966 104.2M287.469 95V85H298.5V95H287.469ZM287.469 95V105M287.469 95L298.5 104.2M320 95V85H331V95H320ZM320 95V105M320 95L331 104.2M303.651 103.667V85H314.681V103.667H303.651Z" stroke="black" stroke-width="3"/>
<path d="M22.417 100H12V109.333M22.417 118.667H12V109.333M12 109.333H22.417M26.0936 120V110M26.0936 110V100H36.5V110H26.0936ZM26.0936 110L35.9663 119.2M41.4687 110V100H52.5V110H41.4687ZM41.4687 110V120M41.4687 110L52.5 119.2M74 110V100H85V110H74ZM74 110V120M74 110L85 119.2M57.6511 118.667V100H68.6809V118.667H57.6511Z" stroke="black" stroke-width="3"/>
<path d="M272.417 120H262V129.333M272.417 138.667H262V129.333M262 129.333H272.417M276.094 140V130M276.094 130V120H286.5V130H276.094ZM276.094 130L285.966 139.2M291.469 130V120H302.5V130H291.469ZM291.469 130V140M291.469 130L302.5 139.2M324 130V120H335V130H324ZM324 130V140M324 130L335 139.2M307.651 138.667V120H318.681V138.667H307.651Z" stroke="black" stroke-width="3"/>
<path d="M265.417 105H255V114.333M265.417 123.667H255V114.333M255 114.333H265.417M269.094 125V115M269.094 115V105H279.5V115H269.094ZM269.094 115L278.966 124.2M284.469 115V105H295.5V115H284.469ZM284.469 115V125M284.469 115L295.5 124.2M317 115V105H328V115H317ZM317 115V125M317 115L328 124.2M300.651 123.667V105H311.681V123.667H300.651Z" stroke="black" stroke-width="3"/>
<path d="M14.417 115H4V124.333M14.417 133.667H4V124.333M4 124.333H14.417M18.0936 135V125M18.0936 125V115H28.5V125H18.0936ZM18.0936 125L27.9663 134.2M33.4687 125V115H44.5V125H33.4687ZM33.4687 125V135M33.4687 125L44.5 134.2M66 125V115H77V125H66ZM66 125V135M66 125L77 134.2M49.6511 133.667V115H60.6809V133.667H49.6511Z" stroke="black" stroke-width="3"/>
<path d="M18.417 135H8V144.333M18.417 153.667H8V144.333M8 144.333H18.417M22.0936 155V145M22.0936 145V135H32.5V145H22.0936ZM22.0936 145L31.9663 154.2M37.4687 145V135H48.5V145H37.4687ZM37.4687 145V155M37.4687 145L48.5 154.2M70 145V135H81V145H70ZM70 145V155M70 145L81 154.2M53.6511 153.667V135H64.6809V153.667H53.6511Z" stroke="black" stroke-width="3"/>
<path d="M22.417 154H12V163.333M22.417 172.667H12V163.333M12 163.333H22.417M26.0936 174V164M26.0936 164V154H36.5V164H26.0936ZM26.0936 164L35.9663 173.2M41.4687 164V154H52.5V164H41.4687ZM41.4687 164V174M41.4687 164L52.5 173.2M74 164V154H85V164H74ZM74 164V174M74 164L85 173.2M57.6511 172.667V154H68.6809V172.667H57.6511Z" stroke="black" stroke-width="3"/>
<path d="M42.417 35H32V44.3333M42.417 53.6667H32V44.3333M32 44.3333H42.417M46.0936 55V45M46.0936 45V35H56.5V45H46.0936ZM46.0936 45L55.9663 54.2M61.4687 45V35H72.5V45H61.4687ZM61.4687 45V55M61.4687 45L72.5 54.2M94 45V35H105V45H94ZM94 45V55M94 45L105 54.2M77.6511 53.6667V35H88.6809V53.6667H77.6511Z" stroke="black" stroke-width="3"/>
<path d="M19.417 70H9V79.3333M19.417 88.6667H9V79.3333M9 79.3333H19.417M23.0936 90V80M23.0936 80V70H33.5V80H23.0936ZM23.0936 80L32.9663 89.2M38.4687 80V70H49.5V80H38.4687ZM38.4687 80V90M38.4687 80L49.5 89.2M71 80V70H82V80H71ZM71 80V90M71 80L82 89.2M54.6511 88.6667V70H65.6809V88.6667H54.6511Z" stroke="black" stroke-width="3"/>
<path d="M14.417 145H4V154.333M14.417 163.667H4V154.333M4 154.333H14.417M18.0936 165V155M18.0936 155V145H28.5V155H18.0936ZM18.0936 155L27.9663 164.2M33.4687 155V145H44.5V155H33.4687ZM33.4687 155V165M33.4687 155L44.5 164.2M66 155V145H77V155H66ZM66 155V165M66 155L77 164.2M49.6511 163.667V145H60.6809V163.667H49.6511Z" stroke="black" stroke-width="3"/>
</svg>
