<svg width="136" height="352" viewBox="0 0 136 352" fill="none" xmlns="http://www.w3.org/2000/svg">
<path d="M60.5 93.5L105.5 69.5V265.5L122.5 285.5L109 49.5L98.5 52H79.2648H78H75H72.5L70 52L61.5 52L54 56.5L56.3737 106.5L60.5 93.5Z" fill="#1746E2"/>
<path d="M96.5 331L93 267.125C88.4241 267.709 83.6505 268.307 79.5 268.806L85 315.5L72.75 323.25L78.5 331H96.5Z" fill="#E21717"/>
<path d="M96.5 331H78.5H60.5V336.5H96.5V331Z" fill="black"/>
<path d="M72.75 323.25L60.5 331H78.5L72.75 323.25Z" fill="#E21717"/>
<path d="M98.5 52V16H61.5V52L70 52V36L67.5 31H70H73H75H81L79.5 34.5L78 36V52H79.2648H98.5Z" fill="#000207"/>
<path d="M75 52V36.5H72.5V52H75Z" fill="#1746E2"/>
<path d="M70 36V52L72.5 52V36.5L70 36Z" fill="#1746E2"/>
<path d="M75 36.5V52H78V36L75 36.5Z" fill="#1746E2"/>
<path d="M73 31V36.5H75V31H73Z" fill="#D4E217"/>
<path d="M79.5 34.5L81 31H75V36.5L78 36L79.5 34.5Z" fill="#E2171A"/>
<path fill-rule="evenodd" clip-rule="evenodd" d="M60.5 93.5L105.5 69.5V265.5C102.117 265.948 97.6609 266.529 93 267.125C88.4241 267.709 83.6505 268.307 79.5 268.806C73.7169 269.5 69.1435 270 68 270C65.2 270 30.8333 250 14 240L56.3737 106.5L60.5 93.5ZM81.5 216L47 209.5L44.5 218L79.5 225L81.5 216Z" fill="#020611"/>
<path d="M47 209.5L81.5 216L79.5 225L44.5 218L47 209.5Z" fill="#EFFF0A"/>
<path fill-rule="evenodd" clip-rule="evenodd" d="M73 36.5H72.5L70 36V31H73V36.5Z" fill="#0C2268"/>
<path d="M67.5 31L70 36V31H67.5Z" fill="#E2171A"/>
<path d="M105.5 265.5V69.5L60.5 93.5L56.3737 106.5M79.5 268.806C83.6505 268.307 88.4241 267.709 93 267.125C97.6609 266.529 102.117 265.948 105.5 265.5M78 52H79.2648H98.5L109 49.5L122.5 285.5L105.5 265.5M72.75 323.25L60.5 331V336.5H96.5V331L93 267.125M96.5 331H78.5M60.5 331H78.5M79.5 268.806C73.7169 269.5 69.1435 270 68 270C65.2 270 30.8333 250 14 240L56.3737 106.5M79.5 268.806L85 315.5L72.75 323.25M72.75 323.25L78.5 331M56.3737 106.5L54 56.5L61.5 52M98.5 52V16H61.5V52M61.5 52L70 52M75 36.5V52M75 36.5H72.5M75 36.5L78 36M75 36.5V31M75 36.5H73M70 36V52M70 36L67.5 31H70M70 36L72.5 36.5M70 36V31M75 52H72.5L70 52M75 52H78M72.5 36.5V52M72.5 36.5H73M78 36L79.5 34.5L81 31H75M78 36V52M73 31V36.5M73 31H75M73 31H70M47 209.5L81.5 216L79.5 225L44.5 218L47 209.5Z" stroke="black"/>
<path d="M72 268.5V254H79V256.5H74V261H79V263H74V267H79V268.5H72Z" stroke="white"/>
<path d="M81.5 268.5V254H88.5V261L85.5 262L88.5 268.5H86.5L83.5 262V268.5H81.5Z" stroke="white"/>
<path d="M91 268.5V254H98V261L95 262L98 268.5H96L93 262V268.5H91Z" stroke="white"/>
<path d="M100.5 268.5V254H107.5V268.5H100.5Z" stroke="white"/>
<path d="M110 268.5V254H117V261L114 262L117 268.5H115L112 262V268.5H110Z" stroke="white"/>
<path d="M51 188.5V174H58V176.5H53V181H58V183H53V187H58V188.5H51Z" stroke="white"/>
<path d="M60.5 188.5V174H67.5V181L64.5 182L67.5 188.5H65.5L62.5 182V188.5H60.5Z" stroke="white"/>
<path d="M70 188.5V174H77V181L74 182L77 188.5H75L72 182V188.5H70Z" stroke="white"/>
<path d="M79.5 188.5V174H86.5V188.5H79.5Z" stroke="white"/>
<path d="M89 188.5V174H96V181L93 182L96 188.5H94L91 182V188.5H89Z" stroke="white"/>
<path d="M45 119.5V105H52V107.5H47V112H52V114H47V118H52V119.5H45Z" stroke="white"/>
<path d="M54.5 119.5V105H61.5V112L58.5 113L61.5 119.5H59.5L56.5 113V119.5H54.5Z" stroke="white"/>
<path d="M64 119.5V105H71V112L68 113L71 119.5H69L66 113V119.5H64Z" stroke="white"/>
<path d="M73.5 119.5V105H80.5V119.5H73.5Z" stroke="white"/>
<path d="M83 119.5V105H90V112L87 113L90 119.5H88L85 113V119.5H83Z" stroke="white"/>
<rect x="65" y="268" width="38" height="11" fill="#84021E"/>
<rect x="87" y="276" width="38" height="4" fill="#405DED"/>
<rect x="42" y="145" width="18" height="4" fill="#188402"/>
<rect x="29" y="170" width="13" height="4" fill="#1746E2"/>
<rect x="48" y="195" width="31" height="5" fill="#ED2020"/>
<rect x="33" y="224" width="12" height="4" fill="#D9D9D9"/>
<rect x="63" y="236" width="24" height="4" fill="#D9D9D9"/>
<rect x="90" y="121" width="28" height="4" fill="#8264ED"/>
<rect x="79" y="132" width="8" height="4" fill="white"/>
<rect x="14" y="232" width="24" height="4" fill="#360909"/>
</svg>
