<svg width="136" height="352" viewBox="0 0 136 352" fill="none" xmlns="http://www.w3.org/2000/svg">
<path d="M60.5 93.5L105.5 69.5V265.5L122.5 285.5L109 49.5L98.5 52H79.2648H78H75H72.5L70 52L61.5 52L54 56.5L56.3737 106.5L60.5 93.5Z" fill="#1746E2"/>
<path d="M96.5 331L93 267.125C88.4241 267.709 83.6505 268.307 79.5 268.806L85 315.5L72.75 323.25L78.5 331H96.5Z" fill="#E21717"/>
<path d="M96.5 331H78.5H60.5V336.5H96.5V331Z" fill="black"/>
<path d="M72.75 323.25L60.5 331H78.5L72.75 323.25Z" fill="#E21717"/>
<path d="M98.5 52V16H61.5V52L70 52V36L67.5 31H70H73H75H81L79.5 34.5L78 36V52H79.2648H98.5Z" fill="#000207"/>
<path d="M75 52V36.5H72.5V52H75Z" fill="#1746E2"/>
<path d="M70 36V52L72.5 52V36.5L70 36Z" fill="#1746E2"/>
<path d="M75 36.5V52H78V36L75 36.5Z" fill="#1746E2"/>
<path d="M73 31V36.5H75V31H73Z" fill="#D4E217"/>
<path d="M79.5 34.5L81 31H75V36.5L78 36L79.5 34.5Z" fill="#E2171A"/>
<path fill-rule="evenodd" clip-rule="evenodd" d="M60.5 93.5L105.5 69.5V265.5C102.117 265.948 97.6609 266.529 93 267.125C88.4241 267.709 83.6505 268.307 79.5 268.806C73.7169 269.5 69.1435 270 68 270C65.2 270 30.8333 250 14 240L56.3737 106.5L60.5 93.5ZM81.5 216L47 209.5L44.5 218L79.5 225L81.5 216Z" fill="#020611"/>
<path d="M47 209.5L81.5 216L79.5 225L44.5 218L47 209.5Z" fill="#EFFF0A"/>
<path fill-rule="evenodd" clip-rule="evenodd" d="M73 36.5H72.5L70 36V31H73V36.5Z" fill="#0C2268"/>
<path d="M67.5 31L70 36V31H67.5Z" fill="#E2171A"/>
<path d="M105.5 265.5V69.5L60.5 93.5L56.3737 106.5M79.5 268.806C83.6505 268.307 88.4241 267.709 93 267.125C97.6609 266.529 102.117 265.948 105.5 265.5M78 52H79.2648H98.5L109 49.5L122.5 285.5L105.5 265.5M72.75 323.25L60.5 331V336.5H96.5V331L93 267.125M96.5 331H78.5M60.5 331H78.5M79.5 268.806C73.7169 269.5 69.1435 270 68 270C65.2 270 30.8333 250 14 240L56.3737 106.5M79.5 268.806L85 315.5L72.75 323.25M72.75 323.25L78.5 331M56.3737 106.5L54 56.5L61.5 52M98.5 52V16H61.5V52M61.5 52L70 52M75 36.5V52M75 36.5H72.5M75 36.5L78 36M75 36.5V31M75 36.5H73M70 36V52M70 36L67.5 31H70M70 36L72.5 36.5M70 36V31M75 52H72.5L70 52M75 52H78M72.5 36.5V52M72.5 36.5H73M78 36L79.5 34.5L81 31H75M78 36V52M73 31V36.5M73 31H75M73 31H70M47 209.5L81.5 216L79.5 225L44.5 218L47 209.5Z" stroke="black"/>
<path d="M19 240.5V226H26V228.5H21V233H26V235H21V239H26V240.5H19Z" stroke="#EAEAEA"/>
<path d="M28.5 240.5V226H35.5V233L32.5 234L35.5 240.5H33.5L30.5 234V240.5H28.5Z" stroke="#EAEAEA"/>
<path d="M38 240.5V226H45V233L42 234L45 240.5H43L40 234V240.5H38Z" stroke="#EAEAEA"/>
<path d="M47.5 240.5V226H54.5V240.5H47.5Z" stroke="#EAEAEA"/>
<path d="M57 240.5V226H64V233L61 234L64 240.5H62L59 234V240.5H57Z" stroke="#EAEAEA"/>
<path d="M85 175.5V161H92V163.5H87V168H92V170H87V174H92V175.5H85Z" stroke="#EAEAEA"/>
<path d="M94.5 175.5V161H101.5V168L98.5 169L101.5 175.5H99.5L96.5 169V175.5H94.5Z" stroke="#EAEAEA"/>
<path d="M104 175.5V161H111V168L108 169L111 175.5H109L106 169V175.5H104Z" stroke="#EAEAEA"/>
<path d="M113.5 175.5V161H120.5V175.5H113.5Z" stroke="#EAEAEA"/>
<path d="M123 175.5V161H130V168L127 169L130 175.5H128L125 169V175.5H123Z" stroke="#EAEAEA"/>
<path d="M17 135.5V121H24V123.5H19V128H24V130H19V134H24V135.5H17Z" stroke="#EAEAEA"/>
<path d="M26.5 135.5V121H33.5V128L30.5 129L33.5 135.5H31.5L28.5 129V135.5H26.5Z" stroke="#EAEAEA"/>
<path d="M36 135.5V121H43V128L40 129L43 135.5H41L38 129V135.5H36Z" stroke="#EAEAEA"/>
<path d="M45.5 135.5V121H52.5V135.5H45.5Z" stroke="#EAEAEA"/>
<path d="M55 135.5V121H62V128L59 129L62 135.5H60L57 129V135.5H55Z" stroke="#EAEAEA"/>
<rect x="91" y="243" width="38" height="11" fill="#021884"/>
<rect x="33" y="157" width="18" height="4" fill="#188402"/>
<rect x="59" y="162" width="13" height="4" fill="#DF9696"/>
<rect x="61" y="194" width="46" height="4" fill="#D9D9D9"/>
<rect x="63" y="236" width="24" height="4" fill="#D9D9D9"/>
<rect x="100" y="128" width="28" height="4" fill="#0D052C"/>
<rect x="12" y="192" width="24" height="4" fill="#98195B"/>
</svg>
