<svg width="136" height="352" viewBox="0 0 136 352" fill="none" xmlns="http://www.w3.org/2000/svg">
<g clip-path="url(#clip0_1_2)">
<path d="M60.5 93.5L105.5 69.5V265.5L122.5 285.5L109 49.5L98.5 52H79.2648H78H75H72.5L70 52L61.5 52L54 56.5L56.3737 106.5L60.5 93.5Z" fill="#1746E2"/>
<path d="M96.5 331L93 267.125C88.4241 267.709 83.6505 268.307 79.5 268.806L85 315.5L72.75 323.25L78.5 331H96.5Z" fill="#E21717"/>
<path d="M96.5 331H78.5H60.5V336.5H96.5V331Z" fill="black"/>
<path d="M72.75 323.25L60.5 331H78.5L72.75 323.25Z" fill="#E21717"/>
<path d="M98.5 52V16H61.5V52L70 52V36L67.5 31H72H74H81L79.5 34.5L78 36V52H79.2648H98.5Z" fill="#000207"/>
<path d="M75 52V36.5H72.5V52H75Z" fill="#1746E2"/>
<path d="M70 36V52L72.5 52V36.5L70 36Z" fill="#1746E2"/>
<path d="M75 36.5V52H78V36L75 36.5Z" fill="#1746E2"/>
<path d="M72.5 36.5H75H73L72 31H67.5L70 36L72.5 36.5Z" fill="#0C2268"/>
<path d="M72 31L73 36.5H75L74 31H72Z" fill="#D4E217"/>
<path d="M79.5 34.5L81 31H74L75 36.5L78 36L79.5 34.5Z" fill="#E2171A"/>
<path d="M47 209.5L81.5 216L79.5 225L44.5 218L47 209.5Z" fill="#EFFF0A"/>
<path fill-rule="evenodd" clip-rule="evenodd" d="M105.5 69.5L60.5 93.5L56.3737 106.5L14 240C30.8333 250 65.2 270 68 270C69.1435 270 73.7169 269.5 79.5 268.806C83.6505 268.307 88.4241 267.709 93 267.125C97.6609 266.529 102.117 265.948 105.5 265.5V69.5ZM81.5 216L47 209.5L44.5 218L79.5 225L81.5 216Z" fill="#020611"/>
<path d="M105.5 265.5V69.5L60.5 93.5L56.3737 106.5M79.5 268.806C83.6505 268.307 88.4241 267.709 93 267.125C97.6609 266.529 102.117 265.948 105.5 265.5M78 52H79.2648H98.5L109 49.5L122.5 285.5L105.5 265.5M72.75 323.25L60.5 331V336.5H96.5V331L93 267.125M96.5 331H78.5M60.5 331H78.5M79.5 268.806C73.7169 269.5 69.1435 270 68 270C65.2 270 30.8333 250 14 240L56.3737 106.5M79.5 268.806L85 315.5L72.75 323.25M72.75 323.25L78.5 331M56.3737 106.5L54 56.5L61.5 52M98.5 52V16H61.5V52M61.5 52L70 52M75 36.5V52M75 36.5H72.5M75 36.5L78 36M75 36.5L74 31M75 36.5H73L72 31M70 36V52M70 36L67.5 31H72M70 36L72.5 36.5M75 52H72.5L70 52M75 52H78M72.5 36.5V52M78 36L79.5 34.5L81 31H74M78 36V52M72 31H74M47 209.5L81.5 216L79.5 225L44.5 218L47 209.5Z" stroke="black"/>
<path d="M81 234.5V220H88V222.5H83V227H88V229H83V233H88V234.5H81Z" stroke="white"/>
<path d="M90.5 234.5V220H97.5V227L94.5 228L97.5 234.5H95.5L92.5 228V234.5H90.5Z" stroke="white"/>
<path d="M100 234.5V220H107V227L104 228L107 234.5H105L102 228V234.5H100Z" stroke="white"/>
<path d="M109.5 234.5V220H116.5V234.5H109.5Z" stroke="white"/>
<path d="M119 234.5V220H126V227L123 228L126 234.5H124L121 228V234.5H119Z" stroke="white"/>
<path d="M12 175.5V161H19V163.5H14V168H19V170H14V174H19V175.5H12Z" stroke="white"/>
<path d="M21.5 175.5V161H28.5V168L25.5 169L28.5 175.5H26.5L23.5 169V175.5H21.5Z" stroke="white"/>
<path d="M31 175.5V161H38V168L35 169L38 175.5H36L33 169V175.5H31Z" stroke="white"/>
<path d="M40.5 175.5V161H47.5V175.5H40.5Z" stroke="white"/>
<path d="M50 175.5V161H57V168L54 169L57 175.5H55L52 169V175.5H50Z" stroke="white"/>
<path d="M76 121.5V107H83V109.5H78V114H83V116H78V120H83V121.5H76Z" stroke="white"/>
<path d="M85.5 121.5V107H92.5V114L89.5 115L92.5 121.5H90.5L87.5 115V121.5H85.5Z" stroke="white"/>
<path d="M95 121.5V107H102V114L99 115L102 121.5H100L97 115V121.5H95Z" stroke="white"/>
<path d="M104.5 121.5V107H111.5V121.5H104.5Z" stroke="white"/>
<path d="M114 121.5V107H121V114L118 115L121 121.5H119L116 115V121.5H114Z" stroke="white"/>
<rect x="100" y="234" width="38" height="11" fill="#02841E"/>
<rect x="31" y="145" width="38" height="11" fill="#840202"/>
<rect x="43" y="154" width="46" height="4" fill="#DF9696"/>
<rect x="10" y="191" width="46" height="4" fill="#D9D9D9"/>
<rect x="89" y="243" width="24" height="4" fill="#D9D9D9"/>
<rect x="84" y="122" width="46" height="4" fill="#2D0E9A"/>
<rect x="25" y="187" width="38" height="4" fill="white"/>
</g>
<defs>
<clipPath id="clip0_1_2">
<rect width="136" height="352" fill="white"/>
</clipPath>
</defs>
</svg>
